<svg xmlns="http://www.w3.org/2000/svg" viewBox="0 0 173.86 50.01"><defs><style>.cls-1{stroke:#727272;stroke-miterlimit:10;}.cls-2,.cls-3,.cls-5{fill:#fff;}.cls-3{font-size:12px;letter-spacing:-0.02em;}.cls-3,.cls-5{font-family:MyriadPro-Regular, Myriad Pro;}.cls-4{letter-spacing:0em;}.cls-5{font-size:16px;}.cls-6{letter-spacing:0em;}.cls-7{letter-spacing:-0.01em;}.cls-8{letter-spacing:0em;}.cls-9{letter-spacing:-0.01em;}</style></defs><title>Asset 2</title><g id="Layer_2" data-name="Layer 2"><g id="HomePage"><g id="GoogleNApp"><rect class="cls-1" x="0.5" y="0.5" width="172.86" height="49.01" rx="8.15" ry="8.15"/><path class="cls-2" d="M37.44,31.61a.66.66,0,0,1,0,.5,22.38,22.38,0,0,1-1.95,3.64,17.24,17.24,0,0,1-2.31,2.92,5,5,0,0,1-3.34,1.61,5.5,5.5,0,0,1-2.53-.68,5.08,5.08,0,0,0-2.48-.55h0a5.48,5.48,0,0,0-2.52.57,5.66,5.66,0,0,1-2.55.66,5,5,0,0,1-3.29-1.47A14.74,14.74,0,0,1,14.17,36c-3.57-5.44-4.05-11.81-1.69-15.43a8.26,8.26,0,0,1,6.69-4,9,9,0,0,1,3.17.66c.32.11.6.13.9.22a6.5,6.5,0,0,1,1.59-5.1,7.42,7.42,0,0,1,4.94-2.65.64.64,0,0,1,.68.54,7,7,0,0,1-1.55,5.26,6.89,6.89,0,0,1-2.21,1.83c.13-.05.24,0,.38-.1a8.87,8.87,0,0,1,3.32-.66,8.1,8.1,0,0,1,6.14,3.21.64.64,0,0,1-.2,1,5.58,5.58,0,0,0-3,5.53,5.8,5.8,0,0,0,3.75,5A.63.63,0,0,1,37.44,31.61Z"/><text class="cls-3" transform="translate(47.52 16.33)">C<tspan class="cls-4" x="6.71" y="0">OMING SOON ON</tspan></text><text class="cls-5" transform="translate(47.52 39.22)"><tspan class="cls-6">A</tspan><tspan x="9.74" y="0">pp </tspan><tspan class="cls-6" x="31.34" y="0">S</tspan><tspan class="cls-7" x="39.18" y="0">t</tspan><tspan class="cls-8" x="44.38" y="0">o</tspan><tspan class="cls-9" x="53.17" y="0">r</tspan><tspan x="58.24" y="0">e</tspan></text></g></g></g></svg>