<svg id="Layer_1" data-name="Layer 1" xmlns="http://www.w3.org/2000/svg" xmlns:xlink="http://www.w3.org/1999/xlink" viewBox="0 0 1920 271"><defs><style>.cls-1{fill:none;}.cls-2{clip-path:url(#clip-path);}.cls-3{fill:#f4f4f4;}.cls-4{fill:#fff;}</style><clipPath id="clip-path"><rect class="cls-1" y="-738" width="1920" height="1010.47"/></clipPath></defs><title>cloudTest</title><g id="Phone_and_Clouds" data-name="Phone and Clouds"><g class="cls-2"><rect class="cls-3" x="965.66" y="126.87" width="185.99" height="185.99" rx="93" ry="93"/><rect class="cls-3" x="1361.49" y="99.06" width="185.99" height="185.99" rx="93" ry="93"/><rect class="cls-3" x="1124.21" y="100.74" width="185.99" height="185.99" rx="93" ry="93"/><rect class="cls-3" x="591.12" y="55.02" width="145.66" height="145.66" rx="72.83" ry="72.83"/><rect class="cls-3" x="1548.46" y="110.68" width="85.59" height="85.59" rx="42.8" ry="42.8"/><rect class="cls-3" x="326.47" y="28.68" width="185.99" height="185.99" rx="93" ry="93"/><rect class="cls-4" x="1577.35" y="54.43" width="332.61" height="332.61" rx="166.3" ry="166.3"/><rect class="cls-4" x="345.62" y="12.71" width="332.61" height="332.61" rx="166.3" ry="166.3"/><rect class="cls-4" x="-2.58" y="44.74" width="332.61" height="332.61" rx="166.3" ry="166.3"/><rect class="cls-4" x="208.36" y="79.33" width="185.99" height="185.99" rx="93" ry="93"/><rect class="cls-4" x="879.68" y="98.21" width="185.99" height="185.99" rx="93" ry="93"/><rect class="cls-4" x="1411.32" y="111.91" width="185.99" height="185.99" rx="93" ry="93"/><rect class="cls-4" x="648.01" y="48.11" width="332.61" height="332.61" rx="166.3" ry="166.3"/><rect class="cls-4" x="1059.99" y="113.72" width="158.74" height="158.74" rx="79.37" ry="79.37"/><rect class="cls-4" x="1170.55" y="135.22" width="158.74" height="158.74" rx="79.37" ry="79.37"/><rect class="cls-4" x="1273.79" y="90.55" width="158.74" height="158.74" rx="79.37" ry="79.37"/></g></g></svg>