<svg xmlns="http://www.w3.org/2000/svg" viewBox="0 0 173.86 50.01"><defs><style>.cls-1{stroke:#727272;stroke-miterlimit:10;}.cls-2{fill:#4db6ac;}.cls-3{fill:#dce775;}.cls-4{fill:#d32f2f;}.cls-5{fill:#fbc02d;}.cls-6{font-size:12px;}.cls-6,.cls-8{fill:#fff;font-family:MyriadPro-Regular, Myriad Pro;}.cls-7{letter-spacing:0.02em;}.cls-8{font-size:16px;}.cls-9{letter-spacing:0.01em;}.cls-10{letter-spacing:0em;}.cls-11{letter-spacing:-0.01em;}.cls-12{letter-spacing:0em;}.cls-13{letter-spacing:-0.01em;}</style></defs><title>Asset 2</title><g id="Layer_2" data-name="Layer 2"><g id="HomePage"><g id="GoogleNApp"><rect class="cls-1" x="0.5" y="0.5" width="172.86" height="49.01" rx="8.15" ry="8.15"/><path class="cls-2" d="M9.44,9.14a.8.8,0,0,0-.57.87v30.7a.68.68,0,0,0,.4.69L25.59,25.18Z"/><path class="cls-3" d="M30.09,20.21l-6.72-3.88L10.32,8.79a1.18,1.18,0,0,0-.88-.16l16.15,16Z"/><path class="cls-4" d="M10,40.78l20.1-11.61-4.53-4.5L9.28,40.9A.88.88,0,0,0,10,40.78Z"/><path class="cls-5" d="M36.68,24c-.64-.35-6.55-3.78-6.55-3.78l0,0-4.49,4.47,4.53,4.5,6.52-3.76C37.4,25,37.33,24.36,36.68,24Z"/><text class="cls-6" transform="translate(44.52 16.33)">G<tspan class="cls-7" x="7.75" y="0">E</tspan><tspan x="13.85" y="0">T IT ON </tspan></text><text class="cls-8" transform="translate(44.52 39.22)"><tspan class="cls-9">G</tspan><tspan class="cls-10" x="10.42" y="0">oogle </tspan><tspan class="cls-11" x="52.11" y="0">P</tspan><tspan class="cls-12" x="60.54" y="0">l</tspan><tspan class="cls-13" x="64.32" y="0">a</tspan><tspan x="71.9" y="0">y</tspan></text></g></g></g></svg>