<svg id="Layer_1" data-name="Layer 1" xmlns="http://www.w3.org/2000/svg" xmlns:xlink="http://www.w3.org/1999/xlink" viewBox="0 0 241.05 293.76"><defs><style>.cls-1{fill:none;}.cls-2{font-size:21px;font-family:HelveticaNeueLTPro-Roman, Helvetica Neue LT Pro;}.cls-2,.cls-5{fill:#fff;}.cls-3{clip-path:url(#clip-path);}.cls-4{fill:url(#linear-gradient);}</style><clipPath id="clip-path"><rect class="cls-1" width="241.05" height="258.49" rx="12.1" ry="12.1"/></clipPath><linearGradient id="linear-gradient" x1="110.28" y1="128.04" x2="112.7" y2="350.54" gradientUnits="userSpaceOnUse"><stop offset="0" stop-color="#ffa87b"/><stop offset="1" stop-color="#f35c6d"/></linearGradient></defs><title>LogoNoTrail</title><text class="cls-2" transform="translate(0 287.35)">Better than yesterday.</text><g class="cls-3"><rect x="18.48" width="26.18" height="258.49"/><path class="cls-4" d="M157.27,119a60.24,60.24,0,0,0,47.14-58.79h0A60.23,60.23,0,0,0,144.18,0H13.2C5.91,0,0,5.15,0,11.5V247c0,6.35,5.91,11.5,13.2,11.5H152.69a69.82,69.82,0,0,0,69.82-69.82h0A69.81,69.81,0,0,0,157.27,119Z"/></g><path class="cls-5" d="M169,35.91a21.48,21.48,0,0,0-14.66.21.49.49,0,0,1-.33,0,21,21,0,0,0-9.2-.81.5.5,0,0,0-.22.08,10.91,10.91,0,0,0-4.44,6A.53.53,0,0,0,141,42c3.42-2.2,5.4-2.55,6.1-1.3a.54.54,0,0,1,0,.57,2.4,2.4,0,0,0-.51,1.62.52.52,0,0,1-.32.56l-.88.31-.1,0-3.14.43a.5.5,0,0,0-.43.47,9.37,9.37,0,0,0,3.45,8.41.5.5,0,0,0,.63,0l2.58-2,.06,0,1-.57a.5.5,0,0,1,.59.08,3.18,3.18,0,0,0,1.34.7.55.55,0,0,1,.39.57,2.56,2.56,0,0,1-.56,1.58l-.07.06a9.5,9.5,0,0,1-3.73,1.65.53.53,0,0,0-.07,1c2.48,1.23,4.9,1.69,7.19.86a.5.5,0,0,0,.18-.11A28.74,28.74,0,0,0,160,49.87a.49.49,0,0,1,.16-.18c4.88-3.25,8.43-6.94,10-11.26A2,2,0,0,0,169,35.91Z"/><circle class="cls-5" cx="60.85" cy="14.67" r="5.19"/><circle class="cls-5" cx="18.69" cy="37.74" r="8.36"/><polygon class="cls-5" points="113.46 33.59 115.25 34.82 117.29 34.04 116.67 36.13 118.04 37.83 115.86 37.89 114.68 39.71 113.95 37.66 111.84 37.09 113.57 35.77 113.46 33.59"/><polygon class="cls-5" points="92.49 26.79 92.38 28.97 94.1 30.3 92 30.86 91.27 32.92 90.08 31.09 87.9 31.03 89.28 29.34 88.66 27.25 90.69 28.03 92.49 26.79"/><polygon class="cls-5" points="53.74 33.92 55.74 34.78 57.59 33.62 57.38 35.79 59.05 37.19 56.93 37.67 56.12 39.69 55.01 37.82 52.83 37.67 54.27 36.03 53.74 33.92"/><polygon class="cls-5" points="27.05 16.89 28.01 18.84 30.17 19.16 28.61 20.68 28.98 22.83 27.05 21.81 25.12 22.83 25.49 20.68 23.93 19.16 26.08 18.84 27.05 16.89"/><polygon class="cls-5" points="124.35 20.09 124.04 17.93 122.08 16.96 124.04 16 124.36 13.84 125.88 15.4 128.02 15.04 127.01 16.97 128.02 18.9 125.87 18.53 124.35 20.09"/><polygon class="cls-5" points="159.9 17.26 160.86 19.22 163.02 19.53 161.46 21.05 161.82 23.2 159.9 22.19 157.97 23.2 158.33 21.05 156.77 19.53 158.93 19.22 159.9 17.26"/><polygon class="cls-5" points="82.78 13.5 83.4 11.41 82.03 9.72 84.21 9.66 85.4 7.84 86.12 9.89 88.23 10.46 86.5 11.79 86.61 13.96 84.81 12.72 82.78 13.5"/><polygon class="cls-5" points="188.92 51.6 190.79 52.72 192.77 51.8 192.29 53.93 193.77 55.53 191.6 55.73 190.54 57.63 189.68 55.63 187.54 55.2 189.18 53.77 188.92 51.6"/><polygon class="cls-5" points="153.62 73.88 155.49 75 157.47 74.08 156.99 76.21 158.47 77.81 156.3 78.01 155.24 79.91 154.38 77.91 152.24 77.48 153.88 76.05 153.62 73.88"/><polygon class="cls-5" points="77.25 54.85 76.38 57.44 78.01 59.63 75.28 59.6 73.7 61.83 72.89 59.22 70.27 58.41 72.51 56.83 72.47 54.09 74.67 55.73 77.25 54.85"/></svg>