<svg xmlns="http://www.w3.org/2000/svg" xmlns:xlink="http://www.w3.org/1999/xlink" viewBox="0 0 273.09 279.38"><defs><style>.cls-1,.cls-4{fill:none;}.cls-2{clip-path:url(#clip-path);}.cls-3{fill:url(#linear-gradient);}.cls-4{stroke:#fff;stroke-linecap:round;stroke-miterlimit:10;stroke-width:10.35px;}.cls-5{fill:#fff;}</style><clipPath id="clip-path"><rect class="cls-1" x="50.58" width="241.05" height="258.49" rx="12.1" ry="12.1"/></clipPath><linearGradient id="linear-gradient" x1="160.86" y1="128.04" x2="163.29" y2="350.54" gradientUnits="userSpaceOnUse"><stop offset="0" stop-color="#ffa87b"/><stop offset="1" stop-color="#f35c6d"/></linearGradient></defs><title>LogoNoTxt</title><g id="Layer_2" data-name="Layer 2"><g id="Desn7"><g class="cls-2"><rect x="69.06" width="26.18" height="258.49"/><path class="cls-3" d="M207.85,119A60.24,60.24,0,0,0,255,60.23h0A60.23,60.23,0,0,0,194.76,0h-131c-7.29,0-13.2,5.15-13.2,11.5V247c0,6.35,5.91,11.5,13.2,11.5H203.27a69.82,69.82,0,0,0,69.82-69.82h0A69.81,69.81,0,0,0,207.85,119Z"/><path class="cls-4" d="M215,267.14C27.51,278.73,23.79,129.25,185.82,52.56"/><path class="cls-5" d="M0,279.38l145.21-20.88c-66-4.91-119.05-74.05-25.56-170.34C85.42,115.62,56.83,147.9,30,183.76Z"/></g><path class="cls-5" d="M219.63,35.91a21.48,21.48,0,0,0-14.66.21.49.49,0,0,1-.33,0,21,21,0,0,0-9.2-.81.5.5,0,0,0-.22.08,10.91,10.91,0,0,0-4.44,6,.53.53,0,0,0,.77.63c3.42-2.2,5.4-2.55,6.1-1.3a.54.54,0,0,1,0,.57,2.4,2.4,0,0,0-.51,1.62.52.52,0,0,1-.32.56l-.88.31-.1,0-3.14.43a.5.5,0,0,0-.43.47,9.37,9.37,0,0,0,3.45,8.41.5.5,0,0,0,.63,0l2.58-2,.06,0,1-.57a.5.5,0,0,1,.59.08,3.18,3.18,0,0,0,1.34.7.55.55,0,0,1,.39.57,2.56,2.56,0,0,1-.56,1.58l-.07.06A9.5,9.5,0,0,1,198,55.21a.53.53,0,0,0-.07,1c2.48,1.23,4.9,1.69,7.19.86a.5.5,0,0,0,.18-.11,28.74,28.74,0,0,0,5.33-7.08.49.49,0,0,1,.16-.18c4.88-3.25,8.43-6.94,10-11.26A2,2,0,0,0,219.63,35.91Z"/><circle class="cls-5" cx="111.43" cy="14.67" r="5.19"/><circle class="cls-5" cx="69.27" cy="37.74" r="8.36"/><polygon class="cls-5" points="164.04 33.59 165.84 34.82 167.87 34.04 167.25 36.13 168.63 37.83 166.45 37.89 165.26 39.71 164.53 37.66 162.43 37.09 164.16 35.77 164.04 33.59"/><polygon class="cls-5" points="143.07 26.79 142.96 28.97 144.69 30.3 142.58 30.86 141.85 32.92 140.67 31.09 138.49 31.03 139.86 29.34 139.24 27.25 141.28 28.03 143.07 26.79"/><polygon class="cls-5" points="104.32 33.92 106.32 34.78 108.17 33.62 107.97 35.79 109.64 37.19 107.51 37.67 106.7 39.69 105.59 37.82 103.41 37.67 104.85 36.03 104.32 33.92"/><polygon class="cls-5" points="77.63 16.89 78.59 18.84 80.75 19.16 79.19 20.68 79.56 22.83 77.63 21.81 75.7 22.83 76.07 20.68 74.51 19.16 76.67 18.84 77.63 16.89"/><polygon class="cls-5" points="174.93 20.09 174.62 17.93 172.67 16.96 174.62 16 174.94 13.84 176.46 15.4 178.61 15.04 177.59 16.97 178.6 18.9 176.46 18.53 174.93 20.09"/><polygon class="cls-5" points="210.48 17.26 211.44 19.22 213.6 19.53 212.04 21.05 212.41 23.2 210.48 22.19 208.55 23.2 208.92 21.05 207.36 19.53 209.51 19.22 210.48 17.26"/><polygon class="cls-5" points="133.36 13.5 133.98 11.41 132.61 9.72 134.79 9.66 135.98 7.84 136.71 9.89 138.81 10.46 137.08 11.79 137.19 13.96 135.4 12.72 133.36 13.5"/><polygon class="cls-5" points="239.5 51.6 241.38 52.72 243.36 51.8 242.88 53.93 244.36 55.53 242.19 55.73 241.12 57.63 240.26 55.63 238.12 55.2 239.76 53.77 239.5 51.6"/><polygon class="cls-5" points="204.2 73.88 206.08 75 208.06 74.08 207.58 76.21 209.06 77.81 206.88 78.01 205.82 79.91 204.96 77.91 202.82 77.48 204.46 76.05 204.2 73.88"/><polygon class="cls-5" points="127.84 54.85 126.96 57.44 128.6 59.63 125.86 59.6 124.28 61.83 123.47 59.22 120.86 58.41 123.09 56.83 123.06 54.09 125.25 55.73 127.84 54.85"/></g></g></svg>