<svg xmlns="http://www.w3.org/2000/svg" xmlns:xlink="http://www.w3.org/1999/xlink" viewBox="0 0 236.26 790.12"><defs><style>.cls-1{fill:none;}.cls-2{fill:#fff;}.cls-3{clip-path:url(#clip-path);}.cls-4{fill:#f4976c;}.cls-5{clip-path:url(#clip-path-2);}.cls-6{clip-path:url(#clip-path-3);}.cls-7{clip-path:url(#clip-path-5);}.cls-8{fill:#545557;}.cls-9{fill:#b4dfe5;}</style><clipPath id="clip-path" transform="translate(-22.36 -8.96)"><path class="cls-1" d="M97,54.91c0,14.58,88.07,14.58,88.07,0V0H97Z"/></clipPath><clipPath id="clip-path-2" transform="translate(-22.36 -8.96)"><path class="cls-1" d="M68.79,149.48c-.42,32.54,4.37,61.09,15.52,84.75L70.74,327S1.5,222.27,0,220.24,68.79,149.48,68.79,149.48Z"/></clipPath><clipPath id="clip-path-3" transform="translate(-22.36 -8.96)"><path class="cls-1" d="M194.78,237.62c15.16-28.47,20.72-57,20.51-85.64l85.38,126.57L212.18,302.8Z"/></clipPath><clipPath id="clip-path-5" transform="translate(-22.36 -8.96)"><path class="cls-1" d="M95.59,280.73c29.86,9.55,59.29,10.21,88.18,0L199.1,327l-124-8Z"/></clipPath></defs><title>Asset 4</title><g id="Layer_2" data-name="Layer 2"><g id="About"><polygon class="cls-2" points="176.74 790.12 60.66 790.12 92.37 244.81 145.03 244.81 176.74 790.12"/><path class="cls-2" d="M127.45,15C97.84,43.18,72.51,95.16,69.07,148.22a4.84,4.84,0,0,1-1.32,3c-19.29,20.55-34.5,46.89-45.15,79.68a4.94,4.94,0,0,0-.17,2.35c4.85,28.22,18,48.77,36.08,64.83,3.63,3.23,9.53.28,8.85-4.39-5.78-39.95-.85-59.21,13.41-60.45a5.37,5.37,0,0,1,5,2.62c3.36,5.69,7.46,9.58,12.48,11.27a5.15,5.15,0,0,1,3.71,5.22l-.79,9.19a4.81,4.81,0,0,1-.18,1l-9,30.13a5,5,0,0,0,2.49,5.77c30,16.48,60,18.1,90.12,3.45a5,5,0,0,0,2.8-5.61L180,264.81a4.81,4.81,0,0,1-.11-.68l-1-11.4a5,5,0,0,1,3.11-5,31.53,31.53,0,0,0,11.81-9.23,5.48,5.48,0,0,1,6.8-1.2c5.26,2.89,9.71,6.4,12,11.61a5.73,5.73,0,0,1,.29.85c3.17,12.31,2.29,26.05-.4,40.43-.88,4.68,4.9,7.83,8.69,4.74,21.31-17.37,35.43-37.26,37.34-61.42a5,5,0,0,0-.29-2.09c-10.44-28.58-24.31-54.42-42-77.26a4.84,4.84,0,0,1-1-2.19C206,94.52,187.36,47.34,154.84,15.28A19.91,19.91,0,0,0,127.45,15Z" transform="translate(-22.36 -8.96)"/><g class="cls-3"><path class="cls-4" d="M127.55,14.31C97.94,42.44,72.61,94.42,69.16,147.48a4.84,4.84,0,0,1-1.32,3C48.55,171,33.34,197.37,22.7,230.16a4.94,4.94,0,0,0-.17,2.35c4.85,28.22,18,48.77,36.08,64.83,3.63,3.23,9.53.28,8.85-4.39-5.78-39.95-.85-59.21,13.41-60.45a5.37,5.37,0,0,1,5,2.62c3.36,5.69,7.46,9.58,12.48,11.27a5.15,5.15,0,0,1,3.71,5.22l-.79,9.19a4.81,4.81,0,0,1-.18,1l-9,30.13a5,5,0,0,0,2.49,5.77c30,16.48,60,18.1,90.12,3.45a5,5,0,0,0,2.8-5.61l-7.42-31.46a4.81,4.81,0,0,1-.11-.68L179,252a5,5,0,0,1,3.11-5,31.53,31.53,0,0,0,11.81-9.23,5.48,5.48,0,0,1,6.8-1.2c5.26,2.89,9.71,6.4,12,11.61a5.73,5.73,0,0,1,.29.85c3.17,12.31,2.29,26.05-.4,40.43-.88,4.68,4.9,7.83,8.69,4.74,21.31-17.37,35.43-37.26,37.34-61.42a5,5,0,0,0-.29-2.09c-10.44-28.58-24.31-54.42-42-77.26a4.84,4.84,0,0,1-1-2.19c-9.26-57.46-27.92-104.64-60.45-136.7A19.91,19.91,0,0,0,127.55,14.31Z" transform="translate(-22.36 -8.96)"/></g><g class="cls-5"><path class="cls-4" d="M127.45,15C97.84,43.18,72.51,95.16,69.07,148.22a4.84,4.84,0,0,1-1.32,3c-19.29,20.55-34.5,46.89-45.15,79.68a4.94,4.94,0,0,0-.17,2.35c4.85,28.22,18,48.77,36.08,64.83,3.63,3.23,9.53.28,8.85-4.39-5.78-39.95-.85-59.21,13.41-60.45a5.37,5.37,0,0,1,5,2.62c3.36,5.69,7.46,9.58,12.48,11.27a5.15,5.15,0,0,1,3.71,5.22l-.79,9.19a4.81,4.81,0,0,1-.18,1l-9,30.13a5,5,0,0,0,2.49,5.77c30,16.48,60,18.1,90.12,3.45a5,5,0,0,0,2.8-5.61L180,264.81a4.81,4.81,0,0,1-.11-.68l-1-11.4a5,5,0,0,1,3.11-5,31.53,31.53,0,0,0,11.81-9.23,5.48,5.48,0,0,1,6.8-1.2c5.26,2.89,9.71,6.4,12,11.61a5.73,5.73,0,0,1,.29.85c3.17,12.31,2.29,26.05-.4,40.43-.88,4.68,4.9,7.83,8.69,4.74,21.31-17.37,35.43-37.26,37.34-61.42a5,5,0,0,0-.29-2.09c-10.44-28.58-24.31-54.42-42-77.26a4.84,4.84,0,0,1-1-2.19C206,94.52,187.36,47.34,154.84,15.28A19.91,19.91,0,0,0,127.45,15Z" transform="translate(-22.36 -8.96)"/></g><g class="cls-6"><path class="cls-4" d="M127.45,15C97.84,43.18,72.51,95.16,69.07,148.22a4.84,4.84,0,0,1-1.32,3c-19.29,20.55-34.5,46.89-45.15,79.68a4.94,4.94,0,0,0-.17,2.35c4.85,28.22,18,48.77,36.08,64.83,3.63,3.23,9.53.28,8.85-4.39-5.78-39.95-.85-59.21,13.41-60.45a5.37,5.37,0,0,1,5,2.62c3.36,5.69,7.46,9.58,12.48,11.27a5.15,5.15,0,0,1,3.71,5.22l-.79,9.19a4.81,4.81,0,0,1-.18,1l-9,30.13a5,5,0,0,0,2.49,5.77c30,16.48,60,18.1,90.12,3.45a5,5,0,0,0,2.8-5.61L180,264.81a4.81,4.81,0,0,1-.11-.68l-1-11.4a5,5,0,0,1,3.11-5,31.53,31.53,0,0,0,11.81-9.23,5.48,5.48,0,0,1,6.8-1.2c5.26,2.89,9.71,6.4,12,11.61a5.73,5.73,0,0,1,.29.85c3.17,12.31,2.29,26.05-.4,40.43-.88,4.68,4.9,7.83,8.69,4.74,21.31-17.37,35.43-37.26,37.34-61.42a5,5,0,0,0-.29-2.09c-10.44-28.58-24.31-54.42-42-77.26a4.84,4.84,0,0,1-1-2.19C206,94.52,187.36,47.34,154.84,15.28A19.91,19.91,0,0,0,127.45,15Z" transform="translate(-22.36 -8.96)"/><g class="cls-3"><path class="cls-4" d="M127.55,14.31C97.94,42.44,72.61,94.42,69.16,147.48a4.84,4.84,0,0,1-1.32,3C48.55,171,33.34,197.37,22.7,230.16a4.94,4.94,0,0,0-.17,2.35c4.85,28.22,18,48.77,36.08,64.83,3.63,3.23,9.53.28,8.85-4.39-5.78-39.95-.85-59.21,13.41-60.45a5.37,5.37,0,0,1,5,2.62c3.36,5.69,7.46,9.58,12.48,11.27a5.15,5.15,0,0,1,3.71,5.22l-.79,9.19a4.81,4.81,0,0,1-.18,1l-9,30.13a5,5,0,0,0,2.49,5.77c30,16.48,60,18.1,90.12,3.45a5,5,0,0,0,2.8-5.61l-7.42-31.46a4.81,4.81,0,0,1-.11-.68L179,252a5,5,0,0,1,3.11-5,31.53,31.53,0,0,0,11.81-9.23,5.48,5.48,0,0,1,6.8-1.2c5.26,2.89,9.71,6.4,12,11.61a5.73,5.73,0,0,1,.29.85c3.17,12.31,2.29,26.05-.4,40.43-.88,4.68,4.9,7.83,8.69,4.74,21.31-17.37,35.43-37.26,37.34-61.42a5,5,0,0,0-.29-2.09c-10.44-28.58-24.31-54.42-42-77.26a4.84,4.84,0,0,1-1-2.19c-9.26-57.46-27.92-104.64-60.45-136.7A19.91,19.91,0,0,0,127.55,14.31Z" transform="translate(-22.36 -8.96)"/></g></g><g class="cls-7"><path class="cls-8" d="M127.45,15C97.84,43.18,72.51,95.16,69.07,148.22a4.84,4.84,0,0,1-1.32,3c-19.29,20.55-34.5,46.89-45.15,79.68a4.94,4.94,0,0,0-.17,2.35c4.85,28.22,18,48.77,36.08,64.83,3.63,3.23,9.53.28,8.85-4.39-5.78-39.95-.85-59.21,13.41-60.45a5.37,5.37,0,0,1,5,2.62c3.36,5.69,7.46,9.58,12.48,11.27a5.15,5.15,0,0,1,3.71,5.22l-.79,9.19a4.81,4.81,0,0,1-.18,1l-9,30.13a5,5,0,0,0,2.49,5.77c30,16.48,60,18.1,90.12,3.45a5,5,0,0,0,2.8-5.61L180,264.81a4.81,4.81,0,0,1-.11-.68l-1-11.4a5,5,0,0,1,3.11-5,31.53,31.53,0,0,0,11.81-9.23,5.48,5.48,0,0,1,6.8-1.2c5.26,2.89,9.71,6.4,12,11.61a5.73,5.73,0,0,1,.29.85c3.17,12.31,2.29,26.05-.4,40.43-.88,4.68,4.9,7.83,8.69,4.74,21.31-17.37,35.43-37.26,37.34-61.42a5,5,0,0,0-.29-2.09c-10.44-28.58-24.31-54.42-42-77.26a4.84,4.84,0,0,1-1-2.19C206,94.52,187.36,47.34,154.84,15.28A19.91,19.91,0,0,0,127.45,15Z" transform="translate(-22.36 -8.96)"/></g><rect class="cls-8" x="86" y="89.14" width="65.41" height="65.41" rx="32.7" ry="32.7"/><rect class="cls-9" x="94.43" y="97.58" width="48.54" height="48.54" rx="24.27" ry="24.27"/></g></g></svg>