<svg id="Layer_1" data-name="Layer 1" xmlns="http://www.w3.org/2000/svg" xmlns:xlink="http://www.w3.org/1999/xlink" viewBox="0 0 608.64 859.43"><defs><style>.cls-1{fill:none;}.cls-2{clip-path:url(#clip-path);}.cls-3{fill:#fff;}</style><clipPath id="clip-path"><rect class="cls-1" width="608.64" height="859.43"/></clipPath></defs><title>rocketTrail</title><g class="cls-2"><path class="cls-3" d="M505,56.35C462,80.18,419.87,105.61,379.45,133.2l-15.11,10.39c-5,3.5-9.9,7.15-14.85,10.71l-7.4,5.37c-1.23.9-2.47,1.78-3.69,2.7l-3.63,2.78-14.48,11.12c-19.06,15.1-37.79,30.53-55.3,47.1l-6.63,6.13-6.4,6.34-6.4,6.33-3.19,3.16c-1.06,1.06-2.06,2.17-3.09,3.26L227,261.66l-11.69,13.46a421.41,421.41,0,0,0-40.85,57,284.53,284.53,0,0,0-27.56,61.76l-.64,2-.51,2-1,4c-.67,2.66-1.4,5.3-2,8l-1.52,8-.77,4c-.26,1.33-.35,2.68-.54,4l-1,8a39.73,39.73,0,0,0-.34,4l-.24,4-.25,4-.13,2c0,.67,0,1.33,0,2l0,8c-.09,2.65.22,5.3.37,7.94l.26,4c.11,1.32.11,2.63.33,3.95l1,7.86.25,2a17.26,17.26,0,0,0,.31,2l.76,3.89c.53,2.59.94,5.18,1.54,7.75l2,7.67c.35,1.27.6,2.56,1,3.82L147,512.4c.83,2.52,1.57,5,2.44,7.55l2.86,7.45c.48,1.24.92,2.48,1.43,3.71l1.64,3.66,3.25,7.31,3.66,7.18,1.81,3.58c.65,1.18,1.34,2.35,2,3.52l4,7c1.39,2.32,2.9,4.6,4.34,6.9s2.84,4.6,4.46,6.83l4.68,6.72,1.16,1.68,1.25,1.64,2.5,3.28c1.68,2.18,3.27,4.4,5,6.54l5.27,6.4,2.63,3.2,2.77,3.12,5.52,6.24c1.86,2.07,3.84,4.06,5.74,6.1l2.88,3c1,1,1.91,2,2.93,3a519.25,519.25,0,0,0,51,44.73,652.56,652.56,0,0,0,56.71,39c19.64,12.11,39.9,23.38,60.59,33.86s41.83,20.14,63.27,29,43.17,16.88,65,24.06L473.36,913.26q-35.91-16.06-70.28-34.62T335.82,839q-32.85-21.15-64-45a747.82,747.82,0,0,1-59.94-51.16,606.7,606.7,0,0,1-54.17-58.55c-1.07-1.28-2.1-2.61-3.12-3.95l-3.08-4c-2-2.68-4.12-5.3-6.11-8l-5.9-8.24-2.94-4.12-2.82-4.24-5.6-8.49c-1.85-2.84-3.57-5.81-5.35-8.71L120.14,630l-1.32-2.19-1.25-2.25-5-9c-1.69-3-3.17-6.09-4.71-9.17s-3.08-6.14-4.53-9.27l-4.18-9.5c-.69-1.59-1.39-3.16-2.06-4.75l-1.87-4.87-3.71-9.73-3.25-10-1.6-5c-.5-1.67-.92-3.38-1.39-5.07L82.63,539.2c-.79-3.41-1.46-6.87-2.19-10.3l-1.06-5.15c-.35-1.71-.55-3.48-.83-5.21L77,508.11c-.43-3.49-.66-7-1-10.51l-.44-5.25c-.09-.87-.13-1.75-.14-2.63l-.07-2.64-.25-10.54c-.08-1.75.06-3.51.1-5.27l.2-5.26c.16-3.5.19-7,.62-10.49l1.07-10.44c.1-.87.17-1.74.29-2.6l.42-2.58.86-5.16.87-5.15c.29-1.71.56-3.43,1-5.11l2.36-10.11c.42-1.68.75-3.38,1.24-5l1.48-4.95,3-9.86c1.11-3.24,2.34-6.42,3.52-9.62l1.78-4.79.89-2.39,1-2.33a335.14,335.14,0,0,1,39.73-69.1,464.44,464.44,0,0,1,51.27-58l14-13,14.37-12.45c1.2-1,2.38-2.09,3.6-3.09l3.69-3,7.38-5.93,7.37-5.92,7.55-5.66c20-15.3,40.81-29.15,61.82-42.52l15.9-9.78,4-2.44c1.33-.8,2.69-1.56,4-2.35l8.06-4.67c5.39-3.09,10.72-6.26,16.14-9.27l16.32-8.9c43.59-23.57,88.28-44.59,133.6-63.88Z"/></g></svg>